<?xml version="1.0" standalone="no"?>
<!DOCTYPE svg PUBLIC "-//W3C//DTD SVG 20010904//EN"
 "http://www.w3.org/TR/2001/REC-SVG-20010904/DTD/svg10.dtd">
<svg version="1.0" xmlns="http://www.w3.org/2000/svg"
 width="149.000000pt" height="42.000000pt" viewBox="0 0 149.000000 42.000000"
 preserveAspectRatio="xMidYMid meet">

<g transform="translate(0.000000,42.000000) scale(0.100000,-0.100000)"
fill="#000000" stroke="none">
<path d="M116 274 c-8 -20 -8 -138 0 -158 7 -19 34 -21 35 -3 1 6 0 30 0 52
l-1 40 17 -25 c32 -44 65 -80 73 -80 5 0 15 7 23 15 11 11 13 24 6 62 -5 26
-9 55 -8 63 3 34 -2 50 -14 50 -9 0 -14 -17 -16 -52 -1 -29 -4 -54 -6 -56 -2
-2 -20 21 -41 52 -38 57 -57 69 -68 40z"/>
<path d="M285 280 c-6 -10 1 -14 19 -11 17 3 26 -23 26 -76 0 -47 -2 -53 -21
-53 -35 0 -19 -34 18 -38 28 -3 33 1 39 23 4 15 4 53 0 86 -4 38 -2 59 5 59 5
0 7 5 4 10 -3 6 -24 10 -45 10 -21 0 -42 -4 -45 -10z"/>
<path d="M495 227 c-9 -81 -4 -111 18 -115 14 -3 17 5 18 50 0 45 2 50 11 31
16 -34 47 -29 61 10 11 32 11 32 22 -33 7 -48 14 -66 27 -68 17 -3 18 24 8
181 -1 18 -37 4 -59 -22 l-24 -29 -28 29 c-15 16 -32 29 -37 29 -6 0 -13 -28
-17 -63z"/>
<path d="M701 271 c-25 -25 -28 -88 -6 -130 24 -47 69 -55 102 -18 30 33 33
80 9 124 -26 47 -72 57 -105 24z m79 -56 c11 -29 1 -75 -18 -82 -18 -8 -52 31
-52 58 0 11 7 31 16 45 14 20 19 22 31 12 8 -7 19 -22 23 -33z"/>
<path d="M845 259 c20 -93 46 -159 63 -159 19 0 66 100 75 158 9 54 -17 38
-47 -30 l-28 -63 -23 60 c-25 67 -52 89 -40 34z"/>
<path d="M1010 281 c0 -5 7 -11 15 -15 27 -10 15 -146 -13 -146 -11 0 -13 -3
-5 -11 14 -14 85 -7 91 9 2 6 -3 12 -12 12 -13 0 -16 12 -16 64 0 36 5 68 10
71 22 13 8 25 -30 25 -22 0 -40 -4 -40 -9z"/>
<path d="M1116 253 c-8 -49 -8 -117 0 -137 8 -21 19 -20 72 5 36 18 41 24 28
31 -9 5 -23 5 -35 -1 -15 -8 -20 -7 -25 5 -11 28 -7 33 32 36 47 4 49 22 2 26
-19 2 -38 8 -41 14 -12 20 2 36 29 34 15 0 29 4 32 9 3 6 -15 11 -41 13 l-46
3 -7 -38z"/>
<path d="M1276 274 c-27 -26 -20 -54 18 -69 19 -8 38 -19 41 -25 10 -17 -15
-40 -42 -40 -22 0 -24 2 -13 15 11 13 8 15 -14 15 -30 0 -36 -29 -10 -54 33
-33 124 -2 124 43 0 21 -38 58 -65 63 -26 4 -31 33 -8 42 11 5 22 1 30 -10 16
-22 27 -12 18 15 -8 26 -56 29 -79 5z"/>
</g>
</svg>
